<?xml version="1.0" encoding="UTF-8"?>
<svg width="512pt" height="512pt" version="1.1" viewBox="0 0 512 512" xmlns="http://www.w3.org/2000/svg">
 <path d="m53.332 0c-29.359 0-53.332 23.973-53.332 53.332v405.33c0 29.363 23.973 53.332 53.332 53.332h405.33c29.363 0 53.332-23.973 53.332-53.332v-405.33c0-29.363-23.973-53.332-53.332-53.332zm0 21.332h405.33c17.914 0 32 14.086 32 32v405.33c0 17.914-14.086 32-32 32l-405.33 0.003907c-17.914 0-32-14.086-32-32v-405.33c0-17.914 14.086-32 32-32zm202.67 192c-23.438 0-42.668 19.23-42.668 42.668s19.23 42.668 42.668 42.668 42.668-19.23 42.668-42.668-19.23-42.668-42.668-42.668zm0 21.332c11.91 0 21.332 9.4258 21.332 21.332 0 11.91-9.4258 21.332-21.332 21.332-11.91 0-21.332-9.4258-21.332-21.332 0-11.91 9.4258-21.332 21.332-21.332z" fill-rule="evenodd"/>
</svg>
