<?xml version="1.0" encoding="UTF-8"?>
<svg width="512pt" height="512pt" version="1.1" viewBox="0 0 512 512" xmlns="http://www.w3.org/2000/svg">
 <path d="m53.332 0c-29.359 0-53.332 23.973-53.332 53.332v405.34c0 29.359 23.973 53.332 53.332 53.332h405.34c29.359 0 53.332-23.973 53.332-53.332v-405.34c0-29.359-23.973-53.332-53.332-53.332zm0 21.332h405.34c17.91 0 32 14.09 32 32v405.34c0 17.91-14.09 32-32 32h-405.34c-17.91 0-32-14.09-32-32v-405.34c0-17.91 14.09-32 32-32zm105.61 53.336c-23.438 0-42.668 19.227-42.668 42.664s19.23 42.668 42.668 42.668 42.668-19.23 42.668-42.668-19.23-42.664-42.668-42.664zm192 0c-23.438 0-42.668 19.227-42.668 42.664s19.23 42.668 42.668 42.668 42.668-19.23 42.668-42.668-19.23-42.664-42.668-42.664zm-192 21.332c11.91 0 21.332 9.4258 21.332 21.332 0 11.91-9.4219 21.336-21.332 21.336s-21.332-9.4258-21.332-21.336c0-11.906 9.4219-21.332 21.332-21.332zm192 0c11.91 0 21.332 9.4258 21.332 21.332 0 11.91-9.4219 21.336-21.332 21.336s-21.332-9.4258-21.332-21.336c0-11.906 9.4219-21.332 21.332-21.332zm-192 117.33c-23.438 0-42.668 19.23-42.668 42.668s19.23 42.668 42.668 42.668 42.668-19.23 42.668-42.668-19.23-42.668-42.668-42.668zm192 0c-23.438 0-42.668 19.23-42.668 42.668s19.23 42.668 42.668 42.668 42.668-19.23 42.668-42.668-19.23-42.668-42.668-42.668zm-192 21.336c11.91 0 21.332 9.4219 21.332 21.332s-9.4219 21.332-21.332 21.332-21.332-9.4219-21.332-21.332 9.4219-21.332 21.332-21.332zm192 0c11.91 0 21.332 9.4219 21.332 21.332s-9.4219 21.332-21.332 21.332-21.332-9.4219-21.332-21.332 9.4219-21.332 21.332-21.332zm-192 117.33c-23.438 0-42.668 19.23-42.668 42.668s19.23 42.664 42.668 42.664 42.668-19.227 42.668-42.664-19.23-42.668-42.668-42.668zm192 0c-23.438 0-42.668 19.23-42.668 42.668s19.23 42.664 42.668 42.664 42.668-19.227 42.668-42.664-19.23-42.668-42.668-42.668zm-192 21.332c11.91 0 21.332 9.4258 21.332 21.336 0 11.906-9.4219 21.332-21.332 21.332s-21.332-9.4258-21.332-21.332c0-11.91 9.4219-21.336 21.332-21.336zm192 0c11.91 0 21.332 9.4258 21.332 21.336 0 11.906-9.4219 21.332-21.332 21.332s-21.332-9.4258-21.332-21.332c0-11.91 9.4219-21.336 21.332-21.336z" fill-rule="evenodd"/>
</svg>
