<?xml version="1.0" encoding="UTF-8"?>
<svg width="512pt" height="512pt" version="1.1" viewBox="0 0 512 512" xmlns="http://www.w3.org/2000/svg">
 <g>
  <path d="m256 430.08c-96.258 0-174.08-78.336-174.08-174.08 0-96.258 78.336-174.08 174.08-174.08 96.258 0 174.08 78.336 174.08 174.08 0 96.258-77.82 174.08-174.08 174.08zm0-332.8c-87.551 0-158.72 71.168-158.72 158.72s71.168 158.72 158.72 158.72 158.72-71.168 158.72-158.72-71.168-158.72-158.72-158.72z"/>
  <path d="m214.02 207.36c0 9.332-7.5625 16.898-16.895 16.898-9.332 0-16.898-7.5664-16.898-16.898s7.5664-16.895 16.898-16.895c9.332 0 16.895 7.5625 16.895 16.895"/>
  <path d="m331.78 207.36c0 9.332-7.5664 16.898-16.898 16.898-9.332 0-16.895-7.5664-16.895-16.898s7.5625-16.895 16.895-16.895c9.332 0 16.898 7.5625 16.898 16.895"/>
  <path d="m340.99 351.23c-4.0977 0-7.6797-3.5859-7.6797-7.6797 0-27.648-33.793-50.688-74.754-50.688-40.961 0-74.754 22.527-74.754 50.688 0 4.0977-3.5859 7.6797-7.6797 7.6797-4.0977 0-7.6797-3.5859-7.6797-7.6797 0-36.863 39.938-66.047 90.113-66.047 50.688 0 90.113 28.672 90.113 66.047 0 4.0977-3.582 7.6797-7.6797 7.6797z"/>
 </g>
</svg>
