<?xml version="1.0" encoding="UTF-8"?>
<svg width="512pt" height="512pt" version="1.1" viewBox="0 0 512 512" xmlns="http://www.w3.org/2000/svg">
 <g>
  <path d="m255.91 441.39c-102.22 0-185.3-83.074-185.3-185.3 0-102.22 83.074-185.3 185.3-185.3 102.22 0 185.3 83.074 185.3 185.3-0.003906 102.22-83.078 185.3-185.3 185.3zm0-352.71c-92.285 0-167.23 75.129-167.23 167.23 0 92.285 75.129 167.23 167.23 167.23 92.285 0 167.23-75.129 167.23-167.23 0.17969-92.105-74.949-167.23-167.23-167.23z"/>
  <path d="m201.91 214.19c0 19.75-6.3867 35.758-14.266 35.758-7.8828 0-14.27-16.008-14.27-35.758s6.3867-35.758 14.27-35.758c7.8789 0 14.266 16.008 14.266 35.758"/>
  <path d="m338.62 214.19c0 19.75-6.3867 35.758-14.27 35.758-7.8789 0-14.266-16.008-14.266-35.758s6.3867-35.758 14.266-35.758c7.8828 0 14.27 16.008 14.27 35.758"/>
  <path d="m255.91 358.13c-47.859 0-85.422-22.215-85.422-50.566h18.059c0 15.352 27.633 32.508 67.363 32.508 31.965 0 67.363-13.363 67.363-32.508h18.059c0.18359 28.535-37.383 50.566-85.422 50.566z"/>
 </g>
</svg>
