<?xml version="1.0" encoding="UTF-8" standalone="no"?>
<svg
   xmlns:dc="http://purl.org/dc/elements/1.1/"
   xmlns:cc="http://creativecommons.org/ns#"
   xmlns:rdf="http://www.w3.org/1999/02/22-rdf-syntax-ns#"
   xmlns:svg="http://www.w3.org/2000/svg"
   xmlns="http://www.w3.org/2000/svg"
   xmlns:sodipodi="http://sodipodi.sourceforge.net/DTD/sodipodi-0.dtd"
   xmlns:inkscape="http://www.inkscape.org/namespaces/inkscape"
   width="512pt"
   height="512pt"
   version="1.1"
   viewBox="0 0 512 512"
   id="svg12"
   sodipodi:docname="journal.svg"
   inkscape:version="1.0.2 (e86c870879, 2021-01-15, custom)">
  <metadata
     id="metadata18">
    <rdf:RDF>
      <cc:Work
         rdf:about="">
        <dc:format>image/svg+xml</dc:format>
        <dc:type
           rdf:resource="http://purl.org/dc/dcmitype/StillImage" />
      </cc:Work>
    </rdf:RDF>
  </metadata>
  <defs
     id="defs16" />
  <sodipodi:namedview
     pagecolor="#ffffff"
     bordercolor="#666666"
     borderopacity="1"
     objecttolerance="10"
     gridtolerance="10"
     guidetolerance="10"
     inkscape:pageopacity="0"
     inkscape:pageshadow="2"
     inkscape:window-width="1696"
     inkscape:window-height="1017"
     id="namedview14"
     showgrid="false"
     inkscape:zoom="1.0766602"
     inkscape:cx="341.33333"
     inkscape:cy="341.33333"
     inkscape:window-x="0"
     inkscape:window-y="0"
     inkscape:window-maximized="0"
     inkscape:current-layer="svg12"
     inkscape:document-rotation="0" />
  <g
     id="g10"
     transform="matrix(0.95550991,0,0,0.95550991,22.206737,12.776113)"
     style="fill:#808080;fill-opacity:1">
    <path
       d="m 387.59,43.008 c 0,-12.289 -10.238,-22.016 -22.016,-22.016 H 74.244 c -12.289,0 -22.527,10.238 -22.527,22.016 V 88.574 H 30.213 c -9.7266,0 -17.406,7.6797 -17.406,17.406 v 30.207 c 0,9.7266 7.6797,17.406 17.406,17.406 h 21.504 v 48.129 l -21.504,0.004 c -9.7266,0 -17.406,7.6797 -17.406,17.406 v 30.207 c 0,9.7266 7.6797,17.406 17.406,17.406 h 21.504 v 48.129 l -21.504,0.004 c -9.7266,0 -17.406,7.6797 -17.406,17.406 v 30.207 c 0,9.7266 7.6797,17.406 17.406,17.406 h 21.504 v 45.566 c 0,12.289 10.238,22.016 22.527,22.016 h 153.09 l 4.6094,-20.48 c 1.5352,-7.168 5.1211,-13.824 10.754,-19.457 l 144.89,-145.41 z m -126.46,262.66 h -82.945 c -7.168,0 -12.801,-5.6328 -12.801,-12.801 0,-7.1682 5.6328,-12.801 12.801,-12.801 h 82.945 c 7.168,0 12.801,5.6328 12.801,12.801 0,7.1682 -5.6328,12.801 -12.801,12.801 z m 28.672,-57.855 h -139.78 c -7.168,0 -12.801,-5.6328 -12.801,-12.801 0,-7.168 5.6328,-12.801 12.801,-12.801 h 139.78 c 7.168,0 12.801,5.6328 12.801,12.801 0,6.6562 -5.6328,12.801 -12.801,12.801 z m 16.895,-74.242 c 0,5.6328 -5.1211,10.238 -10.238,10.238 l -153.09,0.004 c -5.6328,0 -10.238,-4.6094 -10.238,-10.238 v -61.953 c 0,-5.6328 4.6094,-10.238 10.238,-10.238 h 153.09 c 5.6328,0 10.238,4.6094 10.238,10.238 z"
       id="path2"
       style="fill:#808080;fill-opacity:1" />
    <path
       d="m 295.53,397.03 110.41,-110.44 48.883,48.867 -110.41,110.44 z"
       id="path4"
       style="fill:#808080;fill-opacity:1" />
    <path
       d="m 263.17,429.05 c -1.5352,1.5352 -2.5586,3.0703 -2.5586,5.1211 l -10.238,44.031 c -1.5352,7.168 5.1211,13.824 12.289,12.289 l 44.031,-10.238 c 2.0469,-0.51172 3.5859,-1.5352 5.1211,-2.5586 l 11.266,-11.266 -48.641,-48.641 z"
       id="path6"
       style="fill:#808080;fill-opacity:1" />
    <path
       d="m 496.13,279.04 -34.305,-34.305 c -4.0977,-4.0977 -10.754,-4.0977 -14.848,0 l -20.992,20.992 48.641,48.641 20.992,-20.992 c 4.6055,-3.582 4.6055,-10.238 0.51172,-14.336 z"
       id="path8"
       style="fill:#808080;fill-opacity:1" />
  </g>
</svg>
