<?xml version="1.0" encoding="UTF-8"?>
<svg width="512pt" height="512pt" version="1.1" viewBox="0 0 512 512" xmlns="http://www.w3.org/2000/svg">
 <g>
  <path d="m256 430.08c-96.258 0-174.08-78.336-174.08-174.08 0-96.258 78.336-174.08 174.08-174.08 96.258 0 174.08 78.336 174.08 174.08 0 96.258-77.82 174.08-174.08 174.08zm0-332.8c-87.551 0-158.72 71.168-158.72 158.72s71.168 158.72 158.72 158.72 158.72-71.168 158.72-158.72-71.168-158.72-158.72-158.72z"/>
  <path d="m214.02 207.36c0 9.332-7.5625 16.898-16.895 16.898-9.332 0-16.898-7.5664-16.898-16.898s7.5664-16.895 16.898-16.895c9.332 0 16.895 7.5625 16.895 16.895"/>
  <path d="m331.78 207.36c0 9.332-7.5664 16.898-16.898 16.898-9.332 0-16.895-7.5664-16.895-16.898s7.5625-16.895 16.895-16.895c9.332 0 16.898 7.5625 16.898 16.895"/>
  <path d="m306.69 322.05h-101.38c-2.5586 0-4.6094-3.5859-4.6094-7.6797 0-4.0977 2.0469-7.6797 4.6094-7.6797h101.38c2.5586 0 4.6094 3.5859 4.6094 7.6797 0 4.0977-2.0508 7.6797-4.6094 7.6797z"/>
 </g>
</svg>
