<?xml version="1.0" encoding="UTF-8" standalone="no"?>
<svg
   xmlns:dc="http://purl.org/dc/elements/1.1/"
   xmlns:cc="http://creativecommons.org/ns#"
   xmlns:rdf="http://www.w3.org/1999/02/22-rdf-syntax-ns#"
   xmlns:svg="http://www.w3.org/2000/svg"
   xmlns="http://www.w3.org/2000/svg"
   xmlns:sodipodi="http://sodipodi.sourceforge.net/DTD/sodipodi-0.dtd"
   xmlns:inkscape="http://www.inkscape.org/namespaces/inkscape"
   width="512pt"
   height="512pt"
   version="1.1"
   viewBox="0 0 512 512"
   id="svg4"
   sodipodi:docname="goal-active.svg"
   inkscape:version="1.0.2 (e86c870879, 2021-01-15, custom)">
  <metadata
     id="metadata10">
    <rdf:RDF>
      <cc:Work
         rdf:about="">
        <dc:format>image/svg+xml</dc:format>
        <dc:type
           rdf:resource="http://purl.org/dc/dcmitype/StillImage" />
      </cc:Work>
    </rdf:RDF>
  </metadata>
  <defs
     id="defs8" />
  <sodipodi:namedview
     pagecolor="#ffffff"
     bordercolor="#666666"
     borderopacity="1"
     objecttolerance="10"
     gridtolerance="10"
     guidetolerance="10"
     inkscape:pageopacity="0"
     inkscape:pageshadow="2"
     inkscape:window-width="1845"
     inkscape:window-height="1013"
     id="namedview6"
     showgrid="false"
     inkscape:zoom="1.0766602"
     inkscape:cx="341.33333"
     inkscape:cy="341.33333"
     inkscape:window-x="0"
     inkscape:window-y="0"
     inkscape:window-maximized="0"
     inkscape:current-layer="svg4" />
  <path
     d="m 97.940093,21.594558 c -43.183995,0 -78.435331,35.251336 -78.435331,78.435332 v 314.05953 c 0,43.18399 35.251336,78.40682 78.435331,78.40682 H 411.99962 c 43.18399,0 78.40682,-35.22283 78.40682,-78.40682 V 100.02989 c 0,-43.183996 -35.22283,-78.435332 -78.40682,-78.435332 z m 97.895847,84.241572 c 3.98426,0.0395 7.77814,1.69212 10.52261,4.57712 2.74484,2.8885 4.19984,6.76147 4.03816,10.74242 -0.16527,3.98068 -1.9329,7.72425 -4.90399,10.37545 l -57.56946,52.68295 c -2.74842,2.4897 -6.33748,3.85136 -10.04527,3.80822 -3.71129,-0.0431 -7.26797,-1.48379 -9.95882,-4.03457 l -26.93055,-25.41117 c -3.804637,-3.6286 -5.381877,-9.01407 -4.142367,-14.12242 1.24311,-5.10881 5.115987,-9.16858 10.160237,-10.64861 5.04774,-1.48021 10.49778,-0.15449 14.30269,3.47409 l 16.81355,15.98027 47.48096,-43.45715 c 2.43939,-2.27421 5.58302,-3.6538 8.90987,-3.90884 0.4383,-0.0395 0.8802,-0.0575 1.3221,-0.0539 z m 53.63118,26.35573 h 149.28106 c 3.95916,-0.0898 7.78899,1.42272 10.6201,4.19267 2.83102,2.76994 4.42619,6.56382 4.42619,10.52261 0,3.95878 -1.59517,7.75303 -4.42619,10.52261 -2.83101,2.76994 -6.66085,4.28243 -10.6201,4.19267 H 249.46712 c -3.95915,0.0898 -7.78899,-1.42273 -10.6201,-4.19267 -2.83101,-2.76995 -4.42619,-6.56383 -4.42619,-10.52261 0,-3.95879 1.59518,-7.75303 4.42619,-10.52261 2.83102,-2.76995 6.66086,-4.28244 10.6201,-4.19267 z m -53.54565,83.75227 c 3.98068,0.0539 7.77097,1.71732 10.50514,4.61299 2.73417,2.89567 4.17474,6.77582 3.9987,10.75254 -0.17604,3.97709 -1.95442,7.71348 -4.93278,10.35798 l -57.56945,52.68294 c -2.74484,2.49329 -6.3339,3.85854 -10.0416,3.82257 -3.7076,-0.0395 -7.26796,-1.47662 -9.96249,-4.02381 l -26.93056,-25.40748 c -2.845447,-2.69094 -4.501607,-6.40573 -4.605807,-10.32211 -0.10419,-3.91602 1.3509,-7.71348 4.048917,-10.55572 2.69452,-2.84178 6.41299,-4.49444 10.32854,-4.59505 3.91602,-0.1006 7.7099,1.36165 10.54836,4.05977 l 16.81355,16.06673 47.48096,-43.42864 c 2.7843,-2.63346 6.48482,-4.07771 10.31843,-4.02381 z m 53.54565,26.38516 h 149.28106 c 3.95916,-0.0862 7.78532,1.42273 10.6201,4.19267 2.83102,2.76995 4.42619,6.56383 4.42619,10.52261 0,3.95879 -1.59517,7.75303 -4.42619,10.52261 -2.8346,2.76995 -6.66085,4.27885 -10.6201,4.19267 H 249.46712 c -3.95915,0.0862 -7.78531,-1.42272 -10.6201,-4.19267 -2.83101,-2.76994 -4.42619,-6.56382 -4.42619,-10.52261 0,-3.95878 1.59518,-7.75303 4.42619,-10.52261 2.8346,-2.76994 6.66086,-4.27885 10.6201,-4.19267 z m -53.31571,83.69525 c 3.98067,0.0898 7.75662,1.78556 10.46558,4.70644 2.70529,2.92087 4.11726,6.81169 3.90526,10.78841 -0.21197,3.97708 -2.02625,7.69913 -5.02981,10.31475 l -57.56946,52.56797 c -2.73407,2.50415 -6.31595,3.88374 -10.02319,3.86212 -3.71129,-0.0215 -7.27524,-1.44066 -9.98089,-3.98067 l -26.93056,-25.40749 c -2.845447,-2.69094 -4.501607,-6.40572 -4.605807,-10.32211 -0.10419,-3.91601 1.35089,-7.71348 4.048917,-10.55571 2.69452,-2.83819 6.41298,-4.49444 10.32854,-4.59147 3.91602,-0.1006 7.7099,1.35807 10.54836,4.05618 l 16.81355,15.98028 47.48096,-43.34219 c 2.42505,-2.31725 5.56868,-3.73639 8.90987,-4.02381 0.54609,-0.0467 1.09217,-0.0647 1.63822,-0.0539 z m 51.90761,26.4707 c 0.47064,-0.0216 0.93766,-0.0216 1.40829,0 h 149.28106 c 3.95915,-0.0862 7.78531,1.42272 10.6201,4.19267 2.83101,2.76994 4.42619,6.56382 4.42619,10.52261 0,3.95878 -1.59518,7.75303 -4.42619,10.52261 -2.83461,2.76994 -6.66086,4.27885 -10.6201,4.19267 H 249.46731 c -5.18424,0.13293 -10.05631,-2.47177 -12.82929,-6.85483 -2.76995,-4.38305 -3.03584,-9.90179 -0.69339,-14.52894 2.33887,-4.62734 6.94109,-7.68479 12.11466,-8.04762 z"
     id="path2"
     style="stroke-width:0.919728;fill:#2b1b8b;fill-opacity:1" />
</svg>
