<?xml version="1.0" encoding="UTF-8" standalone="no"?>
<svg
   xmlns:dc="http://purl.org/dc/elements/1.1/"
   xmlns:cc="http://creativecommons.org/ns#"
   xmlns:rdf="http://www.w3.org/1999/02/22-rdf-syntax-ns#"
   xmlns:svg="http://www.w3.org/2000/svg"
   xmlns="http://www.w3.org/2000/svg"
   xmlns:sodipodi="http://sodipodi.sourceforge.net/DTD/sodipodi-0.dtd"
   xmlns:inkscape="http://www.inkscape.org/namespaces/inkscape"
   width="512pt"
   height="512pt"
   version="1.1"
   viewBox="0 0 512 512"
   id="svg4"
   sodipodi:docname="home-active.svg"
   inkscape:version="1.0.2 (e86c870879, 2021-01-15, custom)">
  <metadata
     id="metadata10">
    <rdf:RDF>
      <cc:Work
         rdf:about="">
        <dc:format>image/svg+xml</dc:format>
        <dc:type
           rdf:resource="http://purl.org/dc/dcmitype/StillImage" />
      </cc:Work>
    </rdf:RDF>
  </metadata>
  <defs
     id="defs8" />
  <sodipodi:namedview
     pagecolor="#ffffff"
     bordercolor="#666666"
     borderopacity="1"
     objecttolerance="10"
     gridtolerance="10"
     guidetolerance="10"
     inkscape:pageopacity="0"
     inkscape:pageshadow="2"
     inkscape:window-width="1847"
     inkscape:window-height="853"
     id="namedview6"
     showgrid="false"
     inkscape:zoom="1.0766602"
     inkscape:cx="341.33333"
     inkscape:cy="341.33333"
     inkscape:window-x="0"
     inkscape:window-y="0"
     inkscape:window-maximized="0"
     inkscape:current-layer="svg4" />
  <path
     d="m419.84 195.69v-70.453c0-8.2422-6.6562-14.949-14.898-14.949h-30.875c-8.2422 0-14.949 6.707-14.949 14.949v17.766l-86.785-75.363c-9.3711-8.1406-23.297-8.1406-32.719 0l-197.02 171.06c-7.832 6.8086-10.648 17.816-7.0156 27.598 3.6875 9.7266 12.953 16.23 23.348 16.23h37.785v153.6c0 7.9375 6.4531 14.387 14.387 14.387h84.891v-111.72c0-15.77 12.801-28.57 28.57-28.57h62.875c15.77 0 28.57 12.801 28.57 28.57v111.67h84.84c7.9375 0 14.387-6.3984 14.387-14.387v-153.6h37.785c13.773 0 24.934-11.16 24.934-24.984 0-7.8867-3.6367-14.898-9.3711-19.508z"
     id="path2"
     style="fill:#2b1b8b;fill-opacity:1" />
</svg>
